<svg xmlns="http://www.w3.org/2000/svg" viewBox="0 0 175 175">
  <path fill="#25D366" d="M87.5,0C39.2,0,0,39.2,0,87.5c0,15.3,4,29.7,11,42.1L3.8,175l46.7-12.2c11.9,6.5,25.5,10.2,40,10.2
    c48.3,0,87.5-39.2,87.5-87.5S135.8,0,87.5,0z M87.5,160c-13.5,0-26.1-3.6-37-9.9l-2.6-1.6L16,158.2l9.8-35.8l-1.8-2.8
    c-7-11.1-10.7-24-10.7-37.1c0-40.4,32.9-73.3,73.3-73.3s73.3,32.9,73.3,73.3S127.9,160,87.5,160z"/>
  <path fill="#25D366" d="M127.3,105.8c-1.7-0.9-10.3-5.1-11.9-5.7c-1.6-0.6-2.8-0.9-3.9,0.9c-1.2,1.7-4.5,5.7-5.5,6.9
    c-1,1.2-2,1.3-3.8,0.4c-1.7-0.9-7.3-2.7-14-8.6c-5.2-4.6-8.7-10.3-9.7-12c-1-1.7-0.1-2.7,0.8-3.5c0.8-0.8,1.7-2,2.6-3
    c0.9-1,1.2-1.7,1.7-2.9c0.6-1.2,0.3-2.2-0.1-3c-0.4-0.9-3.9-9.4-5.4-12.9c-1.4-3.4-2.9-2.9-3.9-3c-1-0.1-2.2-0.1-3.3-0.1
    c-1.2,0-3,0.4-4.6,2.2c-1.6,1.7-6.1,5.9-6.1,14.5c0,8.6,6.2,16.8,7.1,18c0.9,1.2,12.3,18.7,29.8,26.3c17.5,7.6,17.5,5.1,20.7,4.7
    c3.2-0.3,10.3-4.2,11.7-8.3c1.5-4.1,1.5-7.5,1-8.3C130.2,107.1,129,106.6,127.3,105.8z"/>
</svg>
