<?xml version="1.0" standalone="no"?>
<!DOCTYPE svg PUBLIC "-//W3C//DTD SVG 20010904//EN"
 "http://www.w3.org/TR/2001/REC-SVG-20010904/DTD/svg10.dtd">
<svg version="1.0" xmlns="http://www.w3.org/2000/svg"
 width="96.000000pt" height="96.000000pt" viewBox="0 0 96.000000 96.000000"
 preserveAspectRatio="xMidYMid meet">

<g transform="translate(0.000000,96.000000) scale(0.100000,-0.100000)"
fill="#000000" stroke="none">
<path d="M0 480 l0 -480 480 0 480 0 0 480 0 480 -480 0 -480 0 0 -480z m133
393 c-7 -2 -21 -2 -30 0 -10 3 -4 5 12 5 17 0 24 -2 18 -5z m37 -39 l0 -46 53
4 c28 3 77 17 108 31 48 23 69 27 149 27 80 0 101 -4 149 -27 31 -14 80 -28
109 -31 l52 -4 0 46 c0 25 5 46 10 46 6 0 10 -26 10 -57 l0 -58 -108 3 -108 4
-43 -36 c-58 -49 -98 -49 -148 0 l-38 35 -108 -3 -107 -3 0 58 c0 31 4 57 10
57 6 0 10 -21 10 -46z m43 39 c-7 -2 -19 -2 -25 0 -7 3 -2 5 12 5 14 0 19 -2
13 -5z m560 0 c-7 -2 -19 -2 -25 0 -7 3 -2 5 12 5 14 0 19 -2 13 -5z m90 0
c-7 -2 -21 -2 -30 0 -10 3 -4 5 12 5 17 0 24 -2 18 -5z m-643 -458 l0 -165 55
0 c48 0 55 -2 55 -20 0 -18 -7 -20 -80 -20 l-80 0 0 185 0 185 25 0 25 0 0
-165z m192 96 c20 -35 41 -68 46 -73 6 -6 26 21 52 66 l44 76 133 0 c126 0
133 -1 133 -20 0 -17 -7 -20 -40 -20 l-40 0 -2 -162 c-3 -160 -3 -163 -25
-166 -22 -3 -23 -2 -25 160 l-3 163 -42 3 c-25 2 -43 8 -43 15 0 7 -25 -30
-55 -82 -55 -93 -55 -94 -55 -177 0 -83 0 -84 -25 -84 -25 0 -25 1 -25 81 0
80 0 82 -56 177 -31 54 -59 101 -61 105 -3 5 8 7 23 5 23 -2 36 -15 66 -67z"/>
</g>
</svg>
