<?xml version="1.0" standalone="no"?>
<!DOCTYPE svg PUBLIC "-//W3C//DTD SVG 20010904//EN"
 "http://www.w3.org/TR/2001/REC-SVG-20010904/DTD/svg10.dtd">
<svg version="1.0" xmlns="http://www.w3.org/2000/svg"
 width="96.000000pt" height="96.000000pt" viewBox="0 0 96.000000 96.000000"
 preserveAspectRatio="xMidYMid meet">

<g transform="translate(0.000000,96.000000) scale(0.100000,-0.100000)"
fill="#000000" stroke="none">
<path d="M108 873 c6 -2 18 -2 25 0 6 3 1 5 -13 5 -14 0 -19 -2 -12 -5z"/>
<path d="M188 873 c7 -3 16 -2 19 1 4 3 -2 6 -13 5 -11 0 -14 -3 -6 -6z"/>
<path d="M758 873 c7 -3 16 -2 19 1 4 3 -2 6 -13 5 -11 0 -14 -3 -6 -6z"/>
<path d="M828 873 c6 -2 18 -2 25 0 6 3 1 5 -13 5 -14 0 -19 -2 -12 -5z"/>
<path d="M150 813 l0 -48 105 3 106 4 39 -36 c55 -49 98 -49 152 0 l40 36 109
-4 109 -3 0 48 c0 26 -4 47 -10 47 -5 0 -10 -16 -10 -35 l0 -35 -48 0 c-32 0
-66 9 -98 25 -44 22 -61 25 -164 25 -103 0 -120 -3 -164 -25 -32 -16 -66 -25
-98 -25 l-48 0 0 35 c0 19 -4 35 -10 35 -5 0 -10 -21 -10 -47z"/>
<path d="M172 393 l3 -178 78 -3 c72 -3 77 -1 77 18 0 18 -6 20 -55 20 l-55 0
0 160 0 160 -25 0 -25 0 2 -177z"/>
<path d="M330 566 c0 -3 25 -47 55 -100 54 -94 55 -96 55 -176 0 -79 1 -81 23
-78 20 3 22 9 25 86 3 79 5 86 56 173 37 63 55 86 59 75 4 -11 19 -16 47 -16
l40 0 0 -160 c0 -153 1 -160 20 -160 19 0 20 7 20 160 l0 160 45 0 c38 0 45 3
45 20 0 19 -7 20 -135 20 l-134 0 -44 -76 -44 -76 -44 76 c-34 60 -48 76 -66
76 -13 0 -23 -2 -23 -4z"/>
</g>
</svg>
